<svg xmlns="http://www.w3.org/2000/svg" fill="none" viewBox="0 0 1900 1900"><path fill="#4F525E" d="M1306.47 200.798c2.37-1.162 5.23-.186 6.39 2.178 0 .002.01.005-4.28 2.11l-4.29 2.106c-1.16-2.369-.19-5.231 2.18-6.394Z"/><path fill="#4F525E" fill-rule="evenodd" d="m1277.33 340.566 57.46-95.632c-7.01-6.343-12.68-12.535-17.14-18.004-4.59-5.633-7.9-10.507-10.08-13.999-1.08-1.747-1.89-3.15-2.43-4.132-.27-.491-.48-.876-.62-1.148l-.16-.319-.05-.093-.01-.03-.01-.017c0-.002 0 0 4.29-2.106l4.28-2.11.03.048.11.22c.11.203.27.52.51.941.46.842 1.18 2.098 2.17 3.692 1.99 3.19 5.07 7.73 9.38 13.017 8.62 10.577 22.13 24.116 41.65 35.845s37.82 17.306 51.21 19.951c6.69 1.322 12.14 1.91 15.89 2.167 1.88.129 3.33.176 4.29.19.48.008.84.007 1.07.005l.24-.004.05-.001c2.64-.083 4.84 1.984 4.93 4.621.09 2.637-1.98 4.844-4.62 4.929l-.16-4.775.16 4.775-.02.001-.03.001-.11.002-.36.005c-.3.003-.74.003-1.3-.005-1.12-.017-2.74-.07-4.79-.212-4.11-.282-9.96-.917-17.09-2.326-6.92-1.367-15.05-3.466-23.95-6.682l-57.46 95.632c7.02 6.343 12.69 12.535 17.14 18.004 4.59 5.633 7.9 10.506 10.08 13.999 1.09 1.747 1.9 3.15 2.44 4.132.27.491.47.876.61 1.148l.17.319.04.093.02.029v.011c0 .002.01.007-4.28 2.112l4.28-2.112c1.17 2.368.19 5.238-2.18 6.401-2.36 1.162-5.22.186-6.39-2.181l-.02-.045-.11-.22c-.11-.203-.28-.52-.51-.941-.46-.842-1.18-2.098-2.18-3.692-1.99-3.19-5.07-7.73-9.37-13.017-8.62-10.577-22.14-24.116-41.66-35.845-19.52-11.729-37.82-17.306-51.2-19.951-6.69-1.322-12.15-1.91-15.9-2.167-1.87-.129-3.32-.176-4.28-.19-.48-.008-.84-.007-1.07-.005l-.25.003-.04.002-.16-4.775-.15-4.775.02-.001.03-.001.1-.002.36-.005c.31-.003.74-.003 1.31.005 1.12.017 2.73.07 4.79.211 4.1.283 9.96.918 17.09 2.327 6.92 1.367 15.05 3.466 23.94 6.682Zm9.02 3.551c6.83 2.919 13.99 6.502 21.31 10.901 7.32 4.399 13.85 9.042 19.63 13.704l55.82-92.892c-6.83-2.919-14-6.502-21.32-10.901s-13.84-9.042-19.63-13.704l-55.81 92.892Z" clip-rule="evenodd"/><path fill="#4F525E" d="M1230 340.9c-.01 0 0-.001 0 0Z"/><path fill="#4F525E" d="M1230 340.9c-2.64.083-4.85-1.985-4.93-4.621-.09-2.637 1.98-4.844 4.62-4.929l.15 4.775c.16 4.775.16 4.774.16 4.775Z"/><path fill="#4F525E" fill-rule="evenodd" d="M280.488 1619.51c369.761 369.76 969.262 369.76 1339.022 0s369.76-969.261 0-1339.022c-369.76-369.7617-969.261-369.7617-1339.022 0-369.7617 369.761-369.7617 969.262 0 1339.022Zm-2.239 2.24c370.998 371 972.501 371 1343.501 0s371-972.503 0-1343.501c-371-370.9986-972.503-370.9985-1343.501 0-370.9985 370.998-370.9985 972.501 0 1343.501Zm430.121 207.9c-147.499-40.28-286.834-118.35-402.691-234.21-.773-.77-1.544-1.54-2.313-2.32l208.239-208.24-1.119-1.12L302.252 1592c-116.087-117.31-193.744-258.34-232.9691-407.39l283.0101-77.05c26.99 102.03 80.487 198.5 160.49 278.5 78.695 78.7 173.326 131.74 273.505 159.14l-77.918 284.45Zm79.445-284.03-77.917 284.45c154.807 41.99 318.542 42.39 473.522 1.19l-77.57-283.96c-104.2 27.03-214.072 26.47-318.035-1.68Zm319.565 1.28 77.57 283.96c148.63-39.79 289.15-117.86 405.93-234.22l-207.12-207.13 1.12-1.11 207.13 207.12.07-.08c117.34-117.33 195.92-258.75 235.74-408.33l-281.84-73.15c-27.52 99.66-80.44 193.77-158.76 272.1-80.35 80.35-177.32 133.96-279.84 160.84Zm439.02-434.47 281.82 73.14c40.54-153.35 40.38-315.232-.49-468.518l-279.11 76.551c26.99 104.487 26.25 214.657-2.22 318.827Zm1.82-320.359c-26.44-101.275-78.96-197.151-157.56-276.978l203.74-203.735c115.57 116.391 193.21 256.246 232.92 404.164l-279.1 76.549Zm-158.67-278.104 203.73-203.732c-.4-.399-.8-.799-1.2-1.198-116.04-116.045-255.64-194.181-403.4-234.4077l-74.7 277.9227c100.08 27.422 194.61 80.447 273.24 159.073.78.779 1.55 1.559 2.33 2.342Zm-277.1-161.831 74.7-277.9213c-152.98-41.3596-314.641-42.1197-467.936-2.2801l74.441 278.5784c104.433-27.183 214.585-26.643 318.795 1.623Zm-320.327-1.222L717.682 72.3342C568.679 111.336 427.641 188.723 310.25 304.497l204.836 204.836c79.768-78.951 175.677-131.757 277.037-158.419ZM513.962 510.448 309.124 305.61c-1.151 1.139-2.299 2.281-3.445 3.427C190.161 424.555 112.208 563.413 71.8211 710.431l281.5839 75.553c27.332-100.495 80.458-195.44 159.377-274.359.393-.393.786-.785 1.18-1.177ZM352.991 787.512 71.403 711.959c-42.0055 153.959-42.8461 316.801-2.5217 471.121l283.0087-77.05c-27.307-104.31-26.94-214.364 1.101-318.518ZM1605.52 1608.88c-362.65 362.65-950.626 362.65-1313.276 0-362.6511-362.65-362.6511-950.627 0-1313.278 362.65-362.6504 950.626-362.6504 1313.276 0 362.65 362.651 362.65 950.628 0 1313.278Zm-220.54-225.06c-240.23 240.23-629.726 240.23-869.958 0-240.232-240.23-240.232-629.724 0-869.956 240.232-240.232 629.728-240.232 869.958 0 240.23 240.232 240.23 629.726 0 869.956Z" clip-rule="evenodd"/><path fill="#4F525E" fill-rule="evenodd" d="M1680.25 536.026c17.74 30.854 15.34 67.772-3.09 95.536-.19.104-.37.217-.57.333-2.28 1.355-5.47 3.255-7.93-1.028-1.32-2.287 1.76-6.523 1.76-6.523.01-.008.02-.018.03-.029.01-.006.01-.012.02-.018 15.32-24.598 16.95-56.626 1.49-83.507-15.57-27.08-44.38-41.796-73.57-40.68 5.74 3.256 10.72 8.043 14.25 14.179 10.52 18.297 4.22 41.661-14.08 52.184-18.3 10.523-41.66 4.221-52.18-14.076-9.5-16.515-5.29-37.157 9.07-48.76l-.33-.346c.4-.235.79-.467 1.19-.696.84-.483 1.68-.95 2.53-1.403.53-.338 1.06-.664 1.61-.979 2.59-1.491 5.29-2.644 8.03-3.474 41.17-16.165 89.06-.2 111.77 39.287Zm-116.55-26.594c-12.55 8.276-16.64 24.998-9.04 38.201 7.89 13.723 25.41 18.45 39.14 10.558 13.72-7.893 18.45-25.415 10.55-39.138-6.71-11.668-20.38-16.832-32.76-13.267-2.67 1.063-5.3 2.277-7.89 3.646Zm-40.82 117.099c18.17 31.589 52.45 48.125 86.51 45.2 8.32 1.317 17.13-.096 25-4.623 18.3-10.523 24.6-33.887 14.08-52.184-10.52-18.297-33.89-24.6-52.19-14.077-18.29 10.524-24.6 33.887-14.07 52.184 1.83 3.192 4.06 6.018 6.58 8.454-23.37-3.736-44.91-17.604-57.63-39.717-9.56-16.619-12.58-35.205-9.88-52.787.97-2.874 2.01-6.359 1.81-7.502-.16-.963-.48-1.885-.89-2.613-1.32-2.287-4.24-3.075-6.53-1.759-1.33.769-2.16 2.086-2.35 3.504l-.11-.119c-5.1 21.659-2.3 45.229 9.67 66.039Zm87.01 35.589c6.53 1.265 13.52.279 19.74-3.295 13.72-7.892 18.45-25.415 10.56-39.138-7.9-13.723-25.42-18.449-39.14-10.557-13.73 7.892-18.45 25.415-10.56 39.138 4.3 7.471 11.45 12.275 19.29 13.829l.08-.009.03.032ZM866.783 133.417c.046-2.638 2.222-4.739 4.86-4.693l3.659.064c14.176.247 27.846 5.312 38.761 14.361 5.713 4.737 10.537 10.454 14.243 16.883l4.023 6.978c3.308 5.737 5.977 11.82 7.962 18.138l1.347 4.291c4.762-1.32 9.791-1.986 14.983-1.895 5.192.09 10.195.931 14.907 2.416l1.496-4.241c2.204-6.245 5.085-12.23 8.591-17.849l4.263-6.833c3.929-6.296 8.949-11.841 14.822-16.376 11.23-8.662 25.06-13.247 39.24-12.999l3.66.064c2.64.046 4.74 2.221 4.69 4.86-.04 2.638-2.22 4.739-4.86 4.693l-3.66-.064c-12-.21-23.72 3.673-33.23 11.01-4.98 3.841-9.228 8.538-12.556 13.87l-4.264 6.833c-3.136 5.027-5.714 10.383-7.685 15.971l-1.681 4.764c16.888 8.985 28.246 26.902 27.896 47.34-.51 29.018-24.445 52.132-53.463 51.625-29.019-.506-52.132-24.441-51.626-53.459.357-20.439 12.336-37.948 29.528-46.338l-1.514-4.82a81.13312 81.13312 0 0 0-7.124-16.229l-4.022-6.978c-3.14-5.445-7.225-10.288-12.064-14.299-9.245-7.665-20.823-11.954-32.83-12.164l-3.659-.064c-2.638-.046-4.739-2.222-4.693-4.86Zm88.17 149.658c23.743.415 43.325-18.496 43.74-42.239.414-23.742-18.497-43.325-42.239-43.739-23.742-.415-43.325 18.496-43.739 42.239-.415 23.742 18.496 43.325 42.238 43.739Zm-407.81-24.361c1.738-16.502 7.538-26.924 13.378-33.376 2.896-3.199 5.735-5.349 7.956-6.761 1.11-.706 2.056-1.221 2.757-1.582.276-.143.524-.266.697-.352l.106-.054.037-.018c5.246-3.493 12.864-5.198 20.197-4.532 7.52.683 15.516 3.946 20.566 11.344 4.321 6.329 7.16 12.879 7.254 19.888.094 7.092-2.629 13.932-8.034 20.79-1.633 2.073-4.637 2.428-6.709.795-2.073-1.633-2.428-4.637-.795-6.709 4.44-5.634 6.042-10.403 5.984-14.749-.059-4.429-1.849-9.147-5.591-14.628-3.011-4.412-8.001-6.713-13.539-7.216-5.631-.511-11.043.925-14.147 3.044-.372.253-.826.476-.931.528l-.018.009-.142.071h-.001l-.006.003c-.168.084-.34.17-.547.277-.518.267-1.203.64-2.012 1.154-1.617 1.028-3.766 2.644-5.998 5.11-4.414 4.876-9.424 13.375-10.96 27.964-1.065 10.112.856 21.46 4.026 31.716 3.171 10.257 7.449 18.968 10.705 23.738l53.747 78.735c1.488 2.179.927 5.151-1.252 6.639-2.179 1.487-5.152.927-6.639-1.252l-53.869-78.913c-3.283-4.81-9.807-12.048-18.084-18.865-8.284-6.823-17.959-12.922-27.472-15.835-13.718-4.199-22.985-2.9-28.733-.808-2.912 1.059-5.033 2.362-6.457 3.408-.712.524-1.261.991-1.663 1.35-.164.147-.296.268-.428.39l-.112.102-.009.009c-.069.065-.454.425-.845.692-2.801 1.912-5.826 6.159-7.188 11.429-1.332 5.153-.906 10.608 2.179 15.127 3.774 5.528 7.502 8.994 11.526 10.758 3.918 1.718 8.705 2.079 15.164.241 2.538-.722 5.18.749 5.902 3.287.723 2.538-.749 5.18-3.287 5.903-8.072 2.296-15.216 2.126-21.616-.681-6.296-2.76-11.274-7.812-15.58-14.121-4.996-7.318-5.384-15.767-3.539-22.906 1.79-6.92 5.841-13.266 10.83-16.775l11.856-7.192c7.86-2.86 19.265-4.103 34.797.651 11.16 3.417 21.944 10.343 30.749 17.595l.207.171-.017-.055c-3.385-10.95-5.649-23.676-4.4-35.538ZM210.04 570.948c-2.633-.175-4.909 1.818-5.084 4.45-.175 2.633 1.817 4.909 4.45 5.084l22.283 1.481c17.453 1.16 34.256 5.835 49.505 13.522l-14.474 24.701c-1.334 2.277-.57 5.204 1.707 6.537 2.276 1.334 5.203.57 6.537-1.706l14.599-24.917c14.885 8.942 27.988 20.903 38.359 35.352l18.062 25.165c1.539 2.143 4.524 2.633 6.667 1.095 2.143-1.539 2.634-4.523 1.095-6.667l-18.062-25.164c-11.161-15.549-25.266-28.414-41.29-38.025l19.103-32.603c16.217 9.281 34.336 15.297 53.357 17.433l30.782 3.455c2.622.295 4.986-1.592 5.28-4.214.294-2.622-1.592-4.986-4.214-5.28l-30.782-3.456c-17.676-1.984-34.515-7.569-49.592-16.182l14.6-24.916c1.333-2.277.569-5.204-1.707-6.537-2.277-1.334-5.203-.57-6.537 1.706l-14.474 24.702c-14.16-9.545-26.452-21.918-35.996-36.577l-12.185-18.715c-1.439-2.211-4.399-2.837-6.61-1.397-2.211 1.44-2.836 4.399-1.397 6.61l12.185 18.715c10.364 15.917 23.744 29.326 39.164 39.623l-19.338 33.003c-16.521-8.419-34.759-13.537-53.71-14.796l-22.283-1.482Zm22.232 373.2c-2.594-1.848-2.687-5.668-.187-7.641l17.503-13.809c7.501-5.918 7.22-17.381-.562-22.924l-17.184-12.243c-2.733-1.947-2.66-6.031.142-7.879l25.99-17.142c2.202-1.453 2.81-4.416 1.357-6.619-1.453-2.202-4.416-2.81-6.618-1.357l-25.99 17.142c-8.404 5.543-8.624 17.796-.425 23.637l17.184 12.242c2.594 1.848 2.688 5.669.187 7.642l-17.502 13.809c-7.501 5.918-7.22 17.38.561 22.924l18.158 12.936c2.594 1.848 2.687 5.668.187 7.641l-16.564 13.069c-7.904 6.236-7.084 18.464 1.581 23.584l26.798 15.85c2.271 1.35 5.201.59 6.544-1.68s.591-5.2-1.68-6.54l-26.798-15.85c-2.888-1.709-3.162-5.784-.527-7.863l16.564-13.069c7.501-5.918 7.22-17.38-.561-22.924l-18.158-12.936Zm-52.534 1.287c-2.594-1.848-2.688-5.669-.187-7.642l17.502-13.809c7.501-5.918 7.22-17.38-.561-22.924l-17.185-12.242c-2.733-1.947-2.659-6.031.142-7.879l25.99-17.143c2.203-1.452 2.81-4.416 1.358-6.618-1.453-2.203-4.416-2.81-6.619-1.358l-25.99 17.143c-8.403 5.543-8.624 17.795-.424 23.636l17.184 12.243c2.594 1.848 2.687 5.669.187 7.641l-17.503 13.809c-7.501 5.919-7.22 17.381.562 22.925l18.157 12.935c2.594 1.848 2.688 5.669.187 7.642l-16.564 13.069c-7.903 6.235-7.084 18.457 1.581 23.587l26.798 15.85c2.271 1.34 5.201.59 6.544-1.68s.591-5.2-1.68-6.54l-26.798-15.85c-2.888-1.71-3.161-5.788-.527-7.866l16.564-13.069c7.502-5.918 7.221-17.381-.561-22.924l-18.157-12.936Zm301.256 687.375c-.197-.61-.262-1.24-.211-1.85.05-.61.219-1.21.516-1.79l32.85-63.69c1.21-2.34 4.091-3.26 6.436-2.05 2.345 1.21 3.265 4.09 2.056 6.43l-27.564 53.44 119.615-38.21-12.937-40.5c-.803-2.51.584-5.2 3.098-6 2.513-.8 5.201.58 6.004 3.1l12.936 40.5 66.243-21.16c2.513-.8 5.202.58 6.004 3.1.803 2.51-.583 5.2-3.097 6l-66.243 21.16 12.937 40.5c.802 2.51-.584 5.2-3.098 6-2.513.81-5.201-.58-6.004-3.09l-12.936-40.5-119.614 38.2 57.681 29.76c2.345 1.21 3.266 4.09 2.056 6.43-1.209 2.35-4.091 3.27-6.436 2.06l-67.932-35.04-2.36-2.8Zm559.016 130.38c1.74 1.98 4.76 2.18 6.74.43 1.98-1.74 2.18-4.76.43-6.74l-19.08-21.72-4.55-98.54-9.54.44 4.54 98.48-14.63 19.18c-1.8 2.37-5.312 2.52-7.322.33l-16.223-17.74-4.544-98.49-9.545.44 4.545 98.49-14.569 19.22c-1.802 2.38-5.319 2.54-7.332.34l-15.11-16.52c-.754-.83-1.195-1.89-1.247-3.01l-3.363-72.88v-.02l-1.035-22.41c-.23-5-1.934-9.82-4.898-13.84-5.018-6.83-13.114-10.69-21.575-10.3l-8.1.37-.554-12.01c-.039-.85-1.087-1.23-1.661-.6l-16.01 17.56c-.355.39-.328.99.063 1.35l17.559 16.01c.629.57 1.637.1 1.598-.75l-.555-12.01 8.1-.38c5.27-.24 10.313 2.17 13.438 6.42 1.846 2.51 2.907 5.51 3.051 8.62l4.398 95.31c.154 3.35 1.478 6.54 3.741 9.02l15.109 16.52c6.041 6.6 16.59 6.11 21.997-1.02l12.151-16.03 13.521 14.78c6.029 6.6 16.552 6.13 21.972-.98l12.15-15.92 16.34 18.6Zm317.05-266.66c1.36 2.26.63 5.2-1.63 6.56l-130.97 78.83c-2.26 1.37-5.2.64-6.56-1.62-1.36-2.27-.63-5.2 1.63-6.56l130.98-78.84c2.26-1.36 5.19-.63 6.55 1.63Zm-80.15 98.43c2.26-1.36 2.99-4.3 1.63-6.56-1.36-2.26-4.3-2.99-6.56-1.63l-32.74 19.71c-2.26 1.36-2.99 4.3-1.63 6.56 1.36 2.26 4.3 2.99 6.56 1.63l21.59-13c-2.37 15 .32 30.88 8.77 44.91 19.04 31.65 60.14 41.86 91.79 22.81 31.65-19.05 41.86-60.15 22.81-91.79-8.44-14.03-21.22-23.85-35.58-28.77l21.59-13c2.26-1.36 2.99-4.3 1.63-6.56-1.36-2.26-4.29-2.99-6.55-1.63l-32.75 19.71c-2.26 1.37-2.99 4.3-1.63 6.56 1.36 2.26 4.3 2.99 6.56 1.63l-.26.15c15.62 2.87 29.97 12.16 38.8 26.83 16.33 27.13 7.58 62.36-19.55 78.68-27.12 16.33-62.35 7.58-78.68-19.55-8.83-14.67-10.32-31.71-5.54-46.84l-.26.15Zm433.96-308.95c.44 2.6-1.31 5.07-3.91 5.51l-24.4 4.16 7.18 18.69c3.21 8.34-1.91 17.55-10.69 19.22l-19.67 3.76 7.27 18.75c3.24 8.35-1.88 17.58-10.67 19.26l-21.99 4.2c-3.3.63-6.71.09-9.64-1.54l-7.86-4.36c1.13 4.29 1.93 7.9 2.3 11.08.69 6.01-.16 10.73-2.99 15.85-1.83 3.31-5.47 6.19-9.9 8.1-4.55 1.96-10.33 3.07-16.96 2.49-13.35-1.18-29.64-9.14-46.47-29.77-12.28-15.05-17.23-30.93-18.22-45.25-5.91 2.49-12.05 7.19-17.83 15.34-1.52 2.16-4.51 2.66-6.66 1.14-2.15-1.53-2.66-4.51-1.13-6.66 7.85-11.08 16.74-17.21 25.56-19.96.75-13.53 4.71-24.87 8.44-31.6 1.28-2.31 4.18-3.14 6.49-1.86 2.31 1.28 3.14 4.18 1.86 6.49-2.97 5.37-6.17 14.37-7.1 25.21l.06-.01c11.38-.62 21.35 3.62 27.28 7.86l67.76 37.55c.98.55 2.12.73 3.21.52l21.99-4.2c2.93-.56 4.64-3.64 3.56-6.42l-8.72-22.49-86.24-47.79c-2.31-1.27-3.14-4.18-1.86-6.49 1.28-2.31 4.19-3.14 6.49-1.86l86.24 47.79 23.61-4.51c2.93-.56 4.63-3.63 3.56-6.41l-8.65-22.52-86.23-47.78c-2.31-1.28-3.14-4.19-1.86-6.5 1.27-2.3 4.18-3.14 6.49-1.86l86.28 47.82 28.51-4.86c2.6-.44 5.07 1.31 5.51 3.91Zm-154.58 54.29c.04.02.07.05.11.07l48.35 26.79c2.52 8.8 4.05 14.35 4.55 18.66.48 4.2-.06 6.9-1.86 10.14-.48.87-2.12 2.58-5.32 3.95-3.07 1.33-7.26 2.2-12.35 1.75-10.08-.89-24.2-7.04-39.9-26.29-11.3-13.86-15.57-28.51-16.18-41.53.26-.02.52-.03.78-.05 6.9-.38 13.23 1.59 17.81 4.02l-.12.21 4.13 2.28Zm219.69-417.199c7.22 8.106 10.93 18.747 10.3 29.584l-.38 6.64c-.3 5.249-1.61 10.391-3.84 15.152l-.6 1.286c-5.25 11.209-15.57 19.214-27.73 21.518-15.09 2.859-30.68 1.358-44.95-4.332l-21.37-8.523-30.61-9.557c-3.82-1.192-7.85-1.521-11.81-.964l-2.39.336c-7.55 1.061-14.04 5.86-17.27 12.758-2.46 5.241-2.81 11.226-.97 16.711l.31.94c2.34 6.97 7.62 12.57 14.45 15.29l1.21.48c2.45.98 3.64 3.76 2.66 6.21-.97 2.45-3.75 3.64-6.2 2.67l-1.2-.48c-9.45-3.77-16.75-11.5-19.98-21.14l-.31-.93c-2.62-7.82-2.12-16.342 1.37-23.805 4.61-9.822 13.86-16.655 24.6-18.166l2.39-.336c5.36-.754 10.82-.308 15.99 1.305l30.95 9.667 21.72 8.659c12.58 5.017 26.33 6.341 39.63 3.82 9.15-1.734 16.91-7.754 20.86-16.185l.6-1.286c1.72-3.66 2.72-7.614 2.95-11.649l.38-6.64c.48-8.307-2.36-16.464-7.89-22.677-4.52-5.069-10.55-8.537-17.21-9.882l-9.04-1.83c-7.49-1.514-15.2-1.562-22.7-.139l-24.08 4.562c-1.29.245-2.59.383-3.9.416-6.38 5.6-14.87 8.794-24.01 8.266-18.44-1.065-32.52-16.875-31.46-35.313 1.07-18.439 16.88-32.523 35.32-31.458 18.44 1.065 32.52 16.875 31.46 35.314-.26 4.369-1.34 8.494-3.08 12.231l17.97-3.406c8.72-1.652 17.67-1.597 26.37.162l9.05 1.83c8.68 1.755 16.55 6.279 22.44 12.891Zm-131.18-27.082c-.8 13.828 9.77 25.686 23.59 26.485 13.83.798 25.69-9.765 26.49-23.593.8-13.829-9.77-25.687-23.59-26.485-13.83-.799-25.69 9.764-26.49 23.593ZM261.23 1419.86c.492 2.67 3.055 4.44 5.724 3.94 2.669-.49 4.433-3.05 3.941-5.72l-1.405-7.62c-.739-4.01-.535-8.13.596-12.05 1.933-6.69 6.445-12.34 12.542-15.7l1.244-.69 58.563-32.3c2.376-1.31 3.24-4.3 1.929-6.68-1.311-2.37-4.3-3.24-6.676-1.93l-57.053 31.48-22.693-3.92c-3.315-.57-6.522-1.65-9.507-3.2-5.729-2.97-10.45-7.57-13.567-13.22l-2.292-4.16c-2.095-3.79-3.277-8.03-3.452-12.36l-.112-2.75c-.228-5.65 1.794-11.15 5.622-15.3 1.552-1.68 3.364-3.1 5.368-4.21l52.07-28.72c2.08-1.15 4.062-2.47 5.925-3.94l11.065-8.75c2.113-1.67 4.048-3.54 5.783-5.56l41.726 5.23c2.758.34 5.392 1.35 7.681 2.92 2.217 1.53 4.049 3.55 5.35 5.91l8.999 16.32c1.311 2.37 4.3 3.24 6.676 1.92 2.377-1.31 3.24-4.3 1.929-6.67l-8.999-16.32c-2.038-3.69-4.907-6.86-8.382-9.25-3.585-2.47-7.712-4.04-12.031-4.58l-36.983-4.64c.984-2.06 1.802-4.2 2.441-6.41l.868-3c2.514-8.71 1.469-18.05-2.906-25.98l-1.463-2.65c-4.887-8.86-14.062-14.5-24.172-14.87-10.63-.39-20.606 5.12-25.949 14.31-5.082 8.75-5.201 19.52-.315 28.38l.131.24c3.75 6.8 10.048 11.83 17.508 13.98l6.896 1.99c2.164.63 4.373 1.08 6.609 1.37l1.786.22-10.345 8.18c-1.439 1.14-2.969 2.16-4.575 3.04l-52.07 28.73c-2.929 1.61-5.578 3.69-7.845 6.15-5.595 6.07-8.551 14.11-8.217 22.35l.111 2.76c.237 5.85 1.835 11.58 4.667 16.71l2.292 4.16c4.054 7.35 10.194 13.33 17.645 17.2 3.883 2.01 8.054 3.42 12.365 4.16l13.097 2.26c-4.057 4.19-7.075 9.35-8.725 15.06-1.555 5.38-1.836 11.05-.82 16.56l1.405 7.62Zm52.58-171.66c-.8 2.77-1.967 5.4-3.458 7.83l-8.671-1.09c-1.726-.21-3.432-.56-5.103-1.05l-6.896-1.99c-4.956-1.43-9.14-4.77-11.631-9.29l-.131-.24c-3.219-5.83-3.14-12.93.208-18.69 3.519-6.06 10.092-9.69 17.094-9.43 6.66.24 12.705 3.96 15.924 9.79l1.463 2.66c3.116 5.65 3.86 12.3 2.069 18.5l-.868 3Z" clip-rule="evenodd"/></svg>