<svg viewBox="0 0 238 81" fill="none" xmlns="http://www.w3.org/2000/svg">
    <path d="M8.33151 37.9041L9.03151 38.6916C5.00651 44.4666 3.16901 49.9791 3.16901 54.7916C3.16901 65.2041 11.744 72.9041 25.919 72.9041C39.744 72.9041 46.8315 65.5541 46.8315 58.4666C46.8315 53.1291 42.1065 49.2791 35.9815 45.8666L34.494 52.1666H33.444L35.019 45.3416C31.519 43.3291 27.7565 41.7541 23.994 39.7416C14.544 34.6666 6.75651 28.9791 6.75651 19.9666C6.75651 12.6166 12.0065 5.00412 24.694 5.00412C32.219 5.00412 37.994 7.89162 42.194 12.2666L43.6815 5.79162H45.0815L37.5565 38.6041C43.944 42.7166 48.144 47.1791 48.144 55.6666C48.144 67.9166 40.5315 80.5166 25.3065 80.5166C11.744 80.5166 0.894008 70.5416 0.894008 57.3291C0.894008 51.3791 3.16901 44.7291 8.33151 37.9041ZM36.594 37.9041L41.494 15.5041C40.1815 13.3166 35.894 6.05412 24.694 6.05412C15.6815 6.05412 12.969 12.0916 12.969 17.1666C12.969 24.6041 19.0065 28.0166 26.794 32.3916C29.944 34.3166 33.3565 35.8041 36.594 37.9041ZM57.6674 57.8541V28.6291H49.0049V27.5791H50.4049C59.2424 27.5791 62.3924 17.2541 62.4799 8.41662H63.6174V27.5791H65.8924C71.8424 27.5791 76.3924 27.3166 79.0174 26.7916L78.2299 28.6291H63.6174C63.7049 37.4666 68.1674 42.8041 72.1924 47.6166C75.6049 51.8166 78.7549 55.5791 78.7549 60.6541C78.7549 65.2041 75.6924 70.6291 68.2549 70.6291C61.3424 70.6291 57.6674 65.9041 57.6674 57.8541ZM63.6174 35.6291V59.0791C63.6174 66.4291 67.2049 68.5291 70.4424 68.5291C73.8549 68.5291 77.7049 66.1666 77.7049 60.6541C77.7049 55.9291 74.7299 52.3416 71.4049 48.4041C68.4299 44.9041 65.2799 40.9666 63.6174 35.6291ZM116.758 42.4541H89.0206C88.8456 44.0291 88.7581 45.6041 88.7581 47.3541C88.7581 65.2916 96.0207 69.5791 101.883 69.5791C113.083 69.5791 119.733 58.3791 119.733 45.7791C119.733 43.1541 119.383 40.3541 118.683 37.6416L119.733 37.2916C120.433 40.0916 120.783 43.1541 120.783 45.7791C120.783 58.9041 113.783 70.6291 101.883 70.6291C93.0457 70.6291 81.8456 65.2041 81.8456 48.5791C81.8456 36.2416 89.0206 26.5291 100.921 26.5291C111.771 26.5291 116.671 34.7541 116.758 42.4541ZM100.221 27.5791C94.7957 27.5791 90.5081 33.0041 89.1956 41.4041H110.196C110.108 33.9666 107.133 27.5791 100.221 27.5791ZM123.269 69.6666V68.6166H130.181V4.21662C127.294 5.09162 123.269 5.26662 123.269 5.26662V4.21662C128.781 3.86662 132.806 2.46662 136.131 0.891619V68.6166H143.044V69.6666H123.269ZM144.746 69.6666V68.6166H151.659V4.21662C148.771 5.09162 144.746 5.26662 144.746 5.26662V4.21662C150.259 3.86662 154.284 2.46662 157.609 0.891619V68.6166H164.521V69.6666H144.746ZM198.774 40.5291V45.8666C198.861 48.8416 200.436 52.0791 202.011 55.1416C203.586 58.4666 205.249 61.7041 205.249 64.8541C205.249 69.9291 202.186 70.6291 199.649 70.6291C194.924 70.6291 192.911 67.6541 192.824 61.7041C185.124 69.7541 179.874 70.6291 176.461 70.6291C169.636 70.6291 166.574 66.6916 166.574 61.7041C166.574 56.1916 170.511 52.5166 175.761 49.8916C172.086 46.5666 170.161 42.5416 170.161 38.2541C170.161 31.9541 175.061 26.5291 183.724 26.5291C191.074 26.5291 198.774 29.5041 198.774 40.5291ZM192.824 44.9916V40.5291C192.824 32.1291 190.811 27.6666 183.199 27.6666C176.111 27.6666 171.211 32.3041 171.211 38.2541C171.211 42.4541 172.961 46.1291 176.724 49.4541C181.361 47.3541 186.611 46.0416 192.824 44.9916ZM186.786 55.3166L186.436 56.3666C182.849 54.7916 180.049 53.3041 177.774 51.6416C175.061 53.7416 173.486 56.6291 173.486 60.5666C173.486 65.9041 176.549 67.8291 180.224 67.8291C184.424 67.8291 190.024 63.1916 192.824 60.1291V46.0416C187.399 47.0041 182.324 48.4916 178.649 51.0291C180.836 52.5166 183.461 53.9166 186.786 55.3166ZM198.774 51.3791V63.7166C198.774 65.9041 199.299 68.5291 201.574 68.5291C202.886 68.5291 204.199 67.6541 204.199 64.8541C204.199 60.5666 201.049 55.7541 198.774 51.3791ZM207.098 69.6666V68.6166H214.011V29.7666C210.773 30.5541 207.098 30.8166 207.098 30.8166V29.7666C212.873 29.3291 216.723 27.8416 219.961 26.3541V34.8416C222.323 29.9416 226.261 26.5291 230.636 26.5291C232.998 26.5291 234.748 27.4916 236.061 28.4541L235.973 26.5291H237.111L237.548 49.8916H236.586L236.148 33.5291C236.148 31.0791 234.048 27.5791 230.198 27.5791C224.161 27.5791 219.961 35.5416 219.961 42.8041V68.6166H227.748V69.6666H207.098Z" fill="#E9A87C"/>
</svg>
