<svg xmlns="http://www.w3.org/2000/svg" fill="none" viewBox="0 0 1200 1200"><path fill="#4F525E" d="M775.391 1093.79c-.538 1.57-2.251 2.41-3.827 1.88-.001 0-.003 0 .972-2.86l.975-2.85c1.577.53 2.419 2.25 1.88 3.83Z"/><path fill="#4F525E" fill-rule="evenodd" d="m725.985 1018.35 17.047 68.37c5.965-.3 11.263-.06 15.695.39 4.566.47 8.221 1.16 10.753 1.75 1.266.29 2.253.56 2.933.76.34.1.604.18.788.24l.216.07.062.02h.02l.012.01c.001 0 0 0-.975 2.85l-.972 2.86-.032-.01-.148-.05c-.139-.04-.355-.11-.647-.19-.583-.17-1.465-.41-2.621-.68-2.313-.54-5.715-1.19-10.001-1.63-8.573-.87-20.655-.88-34.611 2.6-13.955 3.48-24.618 9.16-31.777 13.96-3.579 2.39-6.277 4.57-8.067 6.13-.895.78-1.562 1.4-1.998 1.82-.217.22-.377.38-.479.48l-.109.11-.02.02c-1.14 1.22-3.05 1.28-4.265.14-1.216-1.14-1.278-3.05-.138-4.26l2.201 2.06c-2.201-2.06-2.202-2.06-2.201-2.06l.008-.01.015-.02.045-.05.158-.16c.135-.14.33-.33.584-.58.509-.49 1.254-1.19 2.235-2.04 1.959-1.71 4.859-4.04 8.672-6.6 3.701-2.48 8.269-5.17 13.677-7.71l-17.047-68.37c-5.965.3-11.263.07-15.695-.38-4.566-.47-8.221-1.17-10.753-1.75-1.266-.3-2.253-.56-2.933-.76-.34-.1-.604-.18-.788-.24l-.216-.07-.062-.02h-.02l-.007-.01c-.001 0-.005 0 .97-2.85l-.97 2.85c-1.577-.54-2.424-2.25-1.885-3.83.538-1.58 2.252-2.42 3.829-1.88l.03.01.148.05c.139.04.355.11.647.19.583.17 1.465.41 2.621.68 2.313.54 5.715 1.19 10.001 1.62 8.573.88 20.655.89 34.611-2.59 13.955-3.48 24.618-9.16 31.777-13.96 3.579-2.4 6.277-4.57 8.067-6.129.895-.779 1.562-1.405 1.998-1.828.217-.211.377-.371.479-.475l.109-.112.02-.021 2.202 2.063c2.201 2.062 2.201 2.062 2.2 2.062l-.007.01-.015.02-.045.04-.158.17c-.135.13-.33.33-.584.58-.509.49-1.254 1.19-2.235 2.04-1.959 1.71-4.859 4.04-8.672 6.6-3.701 2.48-8.269 5.17-13.677 7.7Zm-5.611 2.44c-4.355 1.75-9.154 3.35-14.388 4.66-5.235 1.3-10.223 2.14-14.888 2.64l16.558 66.41c4.355-1.74 9.154-3.34 14.388-4.65 5.235-1.3 10.223-2.14 14.888-2.64l-16.558-66.42Z" clip-rule="evenodd"/><path fill="#4F525E" d="M746.976 997.065c.001-.001 0 0 0 0ZM746.976 997.065c1.14-1.215 3.05-1.278 4.265-.139 1.216 1.14 1.276 3.051.137 4.264l-2.2-2.062-2.202-2.063Z"/><path fill="#4F525E" fill-rule="evenodd" d="M600 2C269.734 2 2 269.734 2 600s267.734 598 598 598 598-267.734 598-598S930.266 2 600 2Zm0-2C268.629 0 0 268.629 0 600s268.629 600 600 600 600-268.629 600-600S931.371 0 600 0ZM315.063 99.2413C398.925 51.3602 496.018 24 599.5 24c.69 0 1.38.0012 2.069.0037V210h1V24.0081C706.8 24.5532 804.464 52.8556 888.545 101.9l-92.064 160.753C738.882 229.173 671.939 210 600.517 210c-70.29 0-136.242 18.57-193.218 51.072L315.063 99.2413Zm91.368 162.3277L314.195 99.7379C226.306 150.121 153.005 223.066 102.191 310.675l161.457 92.177c34.463-58.606 83.782-107.425 142.783-141.283ZM263.142 403.714 101.69 311.541c-48.6113 84.147-76.4994 181.769-76.689 285.89H210v1H25v.069c0 104.803 28.0629 203.051 77.084 287.64l158.572-93.137C228.412 736.194 210 670.506 210 600.517c0-71.768 19.36-139.015 53.142-196.803Zm-1.992 390.159-158.564 93.132c50.382 86.589 122.748 158.805 209.452 209.015l90.279-158.949c-58.61-34.59-107.396-84.054-141.167-143.198Zm142.029 143.705c57.079 33.491 123.42 52.896 194.252 53.445V1173c-103.596-.37-200.732-28.15-284.527-76.48l90.275-158.942Zm195.252 53.451V1173h1.069c103.649 0 200.888-27.45 284.843-75.47l-90.801-157.457c-56.933 32.433-122.815 50.961-193.025 50.961-.696 0-1.391-.001-2.086-.005Zm195.979-51.452 90.801 157.453c86.792-49.85 159.329-121.71 209.999-207.967l-157.565-91.321c-34.512 58.866-84.001 107.888-143.235 141.835Zm143.74-142.699 157.57 91.323c49.12-83.96 77.54-181.505 78.27-285.632H991.029c-.364 70.816-19.577 137.173-52.879 194.309Zm52.883-195.309h182.957c.01-1.022.01-2.045.01-3.069 0-103.178-27.2-200.003-74.82-283.697l-159.461 92.07c32.653 57.074 51.315 123.18 51.315 193.644 0 .351 0 .702-.001 1.052Zm-51.811-195.563 159.468-92.071c-50-87.519-122.355-160.622-209.282-211.53l-92.063 160.752c58.838 34.402 107.867 83.756 141.877 142.849ZM13 598.5C13 274.585 275.585 12 599.5 12S1186 274.585 1186 598.5 923.415 1185 599.5 1185 13 922.415 13 598.5Zm199 2.017C212 385.945 385.945 212 600.517 212s388.517 173.945 388.517 388.517-173.945 388.517-388.517 388.517S212 815.089 212 600.517Z" clip-rule="evenodd"/><path fill="#4F525E" fill-rule="evenodd" d="M458.755 1111c-21.704-5.85-37.12-23.41-41.285-44.04.017-.07.035-.14.053-.21l.016-.06.035-.14c.411-1.62.987-3.89 4-3.08 1.609.44 2.128 3.7 2.128 3.7-.001 0-.001.01-.002.01h-.001v.02c.001.01.001.01.002.01 4.14 17.83 17.716 32.87 36.625 37.97 19.049 5.13 38.487-1.16 51.025-14.69-4.019 1.11-8.378 1.19-12.694.02-12.871-3.47-20.49-16.72-17.018-29.59 3.471-12.87 16.72-20.49 29.591-17.02 11.617 3.14 18.956 14.24 17.723 25.83l.301.01c-.071.28-.144.56-.22.84-.159.59-.327 1.18-.503 1.76-.085.39-.179.77-.283 1.16-.491 1.82-1.18 3.54-2.035 5.13-11.164 25.61-39.681 39.86-67.458 32.37Zm63.927-40.17c1.906-9.3-3.736-18.59-13.024-21.1-9.653-2.6-19.589 3.11-22.193 12.77-2.604 9.65 3.11 19.58 12.764 22.19 8.207 2.21 16.619-1.59 20.555-8.71.717-1.66 1.352-3.38 1.898-5.15Zm-34.067-70.53c-22.221-5.99-44.916 1.94-58.821 18.45-4.304 3.13-7.607 7.7-9.101 13.23-3.472 12.87 4.148 26.12 17.019 29.59 12.871 3.48 26.119-4.14 29.591-17.01 3.472-12.87-4.147-26.12-17.018-29.6-2.245-.6-4.502-.87-6.716-.83 12.105-8.77 27.919-12.2 43.474-8 11.691 3.15 21.343 10.1 27.987 19.16.851 1.72 1.945 3.74 2.542 4.16.503.36 1.056.63 1.567.77 1.609.43 3.265-.52 3.699-2.13.254-.94.034-1.9-.514-2.62l.103.01c-7.395-11.95-19.173-21.23-33.812-25.18Zm-54.753 22.97c-3.48 2.35-6.163 5.91-7.343 10.28-2.604 9.66 3.111 19.59 12.764 22.2 9.654 2.6 19.59-3.11 22.194-12.77 2.604-9.65-3.111-19.59-12.764-22.19-5.255-1.42-10.595-.37-14.789 2.44l-.035.04h-.027Zm567.988-95.753c1.15 1.198 1.12 3.108-.08 4.266l-1.66 1.606c-6.443 6.22-14.81 10.063-23.725 10.896-4.667.437-9.375.037-13.901-1.179l-4.913-1.319a57.30932 57.30932 0 0 1-11.656-4.545l-2.518-1.314c-1.537 2.716-3.486 5.259-5.845 7.537-2.359 2.278-4.969 4.137-7.737 5.578l1.226 2.563c1.805 3.773 3.192 7.732 4.135 11.807l1.148 4.956c1.057 4.566 1.292 9.285.693 13.933-1.144 8.882-5.277 17.109-11.718 23.328l-1.663 1.61c-1.199 1.15-3.109 1.12-4.266-.08-1.158-1.2-1.124-3.11.074-4.26l1.663-1.61c5.456-5.268 8.956-12.236 9.925-19.758.507-3.938.308-7.934-.587-11.802l-1.148-4.956c-.844-3.646-2.084-7.188-3.699-10.564l-1.377-2.879c-11.555 3.53-24.63.602-33.599-8.685-12.733-13.186-12.366-34.197.819-46.93 13.186-12.733 34.197-12.367 46.93.819 8.969 9.287 11.439 22.456 7.508 33.881l2.829 1.477c3.317 1.731 6.814 3.095 10.429 4.066l4.912 1.32a33.3876 33.3876 0 0 0 11.774.998c7.552-.706 14.638-3.961 20.094-9.229l1.662-1.606c1.199-1.157 3.111-1.124 4.271.075Zm-106.217-27.46c-10.788 10.418-11.088 27.609-.67 38.397 10.418 10.788 27.609 11.088 38.397.67 10.789-10.418 11.089-27.609.671-38.397-10.418-10.788-27.61-11.088-38.398-.67Zm193.007-171.246c6.59 8.145 8.66 15.39 8.93 20.88.14 2.721-.17 4.95-.53 6.572-.18.811-.38 1.464-.53 1.938-.06.187-.11.352-.15.468l-.03.072v.024c-.79 3.903-3.43 8.066-7 11.044-3.66 3.054-8.69 5.167-14.25 4.119-4.76-.897-8.95-2.554-12.12-5.643-3.21-3.125-5.05-7.396-5.7-12.873-.2-1.654.99-3.155 2.64-3.351 1.66-.196 3.16.987 3.35 2.641.54 4.5 1.95 7.345 3.92 9.26 2 1.951 4.91 3.259 9.03 4.036 3.31.625 6.57-.575 9.27-2.824 2.74-2.287 4.52-5.345 4.96-7.678.05-.279.15-.581.17-.651l.01-.012.03-.095c.04-.114.08-.23.12-.373.12-.35.25-.823.39-1.414.26-1.181.5-2.862.39-4.96-.2-4.149-1.76-10.182-7.59-17.384-4.04-4.991-9.97-9.201-15.96-12.366-6-3.164-11.8-5.144-15.39-5.82l-59.161-11.16c-1.637-.308-2.714-1.886-2.406-3.524.309-1.637 1.887-2.714 3.525-2.405l59.302 11.184c3.61.682 9.76 1.001 16.5.349 6.74-.653 13.79-2.25 19.34-5.198 8-4.25 11.56-8.969 13.19-12.47.83-1.774 1.19-3.303 1.36-4.406.09-.552.12-1.006.14-1.346.01-.139.02-.252.02-.365V684.976c.01-.06.02-.392.07-.686.4-2.104-.15-5.353-1.89-8.314-1.71-2.897-4.33-5.142-7.73-5.783-4.15-.783-7.37-.666-9.95.343-2.52.983-4.82 2.96-6.88 6.665-.81 1.456-2.65 1.979-4.11 1.168-1.45-.811-1.97-2.649-1.16-4.104 2.58-4.631 5.84-7.745 9.95-9.35 4.05-1.579 8.53-1.546 13.27-.652 5.5 1.038 9.44 4.637 11.81 8.65 2.29 3.889 3.31 8.533 2.65 12.328l-2.08 8.506c-2.23 4.788-6.77 10.437-15.83 15.25-6.51 3.458-14.42 5.181-21.59 5.874l-.17.016.03.017c6.4 3.379 13.1 8.051 17.84 13.907Zm11.1-289.991c1.26-1.097 1.38-3.003.29-4.257-1.1-1.254-3.01-1.381-4.26-.283l-10.61 9.29c-8.32 7.276-17.91 12.693-28.15 16.07l-4.57-17.496c-.42-1.612-2.07-2.578-3.68-2.157-1.61.421-2.58 2.069-2.16 3.682l4.61 17.647c-10.64 2.654-21.83 3.164-32.92 1.343l-19.303-3.172c-1.644-.27-3.196.844-3.467 2.488-.27 1.645.844 3.197 2.489 3.467l19.301 3.172c11.93 1.959 23.98 1.406 35.42-1.459l6.03 23.092c-11.38 3.098-22.16 8.502-31.61 16.043l-15.29 12.204c-1.3 1.04-1.52 2.938-.48 4.24 1.04 1.303 2.94 1.516 4.24.476l15.29-12.203c8.78-7.008 18.8-12.034 29.38-14.921l4.61 17.648c.42 1.612 2.06 2.578 3.68 2.157 1.61-.421 2.58-2.069 2.15-3.682l-4.56-17.495c10.58-2.061 21.6-2.025 32.41.259l13.8 2.917c1.63.344 3.23-.698 3.57-2.328.35-1.631-.7-3.232-2.33-3.576l-13.8-2.917c-11.73-2.48-23.7-2.493-35.18-.205l-6.1-23.375c11.13-3.618 21.56-9.477 30.59-17.379l10.61-9.29ZM923.147 282.081c1.984-.334 3.732 1.331 3.496 3.329l-1.649 13.983c-.707 5.993 4.537 10.987 10.488 9.987l13.142-2.207c2.09-.351 3.881 1.506 3.456 3.582l-3.952 19.263c-.334 1.632.717 3.227 2.35 3.562 1.632.335 3.227-.717 3.562-2.35l3.951-19.262c1.278-6.229-4.096-11.799-10.366-10.746l-13.142 2.207c-1.984.333-3.732-1.331-3.496-3.329l1.649-13.983c.707-5.993-4.537-10.987-10.488-9.988l-13.886 2.332c-1.984.334-3.732-1.331-3.496-3.329l1.561-13.234c.744-6.314-5.082-11.408-11.24-9.827l-19.047 4.889c-1.614.414-2.586 2.059-2.172 3.673.414 1.614 2.059 2.586 3.673 2.172l19.046-4.889c2.053-.527 3.995 1.171 3.747 3.276l-1.561 13.233c-.707 5.993 4.537 10.987 10.488 9.988l13.886-2.332Zm22.887-24.037c1.984-.333 3.732 1.332 3.496 3.329l-1.649 13.984c-.707 5.993 4.537 10.986 10.489 9.987l13.141-2.207c2.09-.351 3.881 1.506 3.456 3.582l-3.952 19.263c-.334 1.632.717 3.227 2.35 3.562 1.632.335 3.227-.717 3.562-2.35l3.951-19.262c1.278-6.229-4.096-11.799-10.366-10.746l-13.142 2.207c-1.984.333-3.732-1.331-3.496-3.329l1.649-13.984c.707-5.993-4.537-10.986-10.488-9.987l-13.886 2.332c-1.984.333-3.732-1.331-3.496-3.329l1.561-13.234c.745-6.314-5.082-11.409-11.24-9.828l-19.047 4.89c-1.614.414-2.586 2.058-2.172 3.673.414 1.614 2.059 2.586 3.673 2.172l19.046-4.89c2.053-.527 3.995 1.172 3.747 3.276l-1.561 13.234c-.707 5.993 4.537 10.987 10.488 9.987l13.886-2.332ZM504.515 85.6038c.364.1875.673.4387.922.7329.248.2939.445.6408.569 1.0305l13.771 43.1128c.507 1.587-.369 3.285-1.956 3.792-1.588.507-3.285-.369-3.792-1.956l-11.555-36.1737-36.356 70.4817 23.864 12.31c1.481.764 2.062 2.583 1.299 4.064-.764 1.481-2.584 2.063-4.065 1.299l-23.864-12.31-20.134 39.033c-.764 1.481-2.584 2.062-4.065 1.298-1.481-.763-2.062-2.583-1.299-4.064l20.135-39.033-23.864-12.31c-1.481-.764-2.063-2.584-1.299-4.065.764-1.481 2.584-2.062 4.065-1.298l23.864 12.31 36.356-70.4821-39.048 12.4721c-1.587.507-3.285-.368-3.792-1.956-.507-1.587.369-3.285 1.956-3.792l45.987-14.6889 2.301.1927ZM196.64 277.031c-1.663-.107-3.098 1.154-3.206 2.816-.107 1.663 1.154 3.099 2.817 3.206l18.223 1.178 46.039 41.978 4.066-4.459-46.01-41.952-2.032-15.099c-.251-1.864 1.246-3.501 3.125-3.417l15.166.676 46.014 41.955 4.066-4.459-46.014-41.955-2.077-15.089c-.257-1.867 1.241-3.51 3.124-3.426l14.125.63c.705.031 1.377.309 1.898.784l34.052 31.048.007.007 10.473 9.549c2.334 2.128 5.246 3.518 8.369 3.994 5.288.806 10.63-1.084 14.234-5.037l3.45-3.784 5.613 5.117c.397.362 1.034.063 1.009-.474l-.692-14.992c-.015-.333-.297-.59-.63-.575l-14.992.692c-.537.025-.776.687-.379 1.049l5.612 5.117-3.45 3.784c-2.245 2.462-5.572 3.639-8.866 3.137-1.945-.296-3.758-1.162-5.212-2.487l-44.532-40.604c-1.564-1.427-3.58-2.26-5.695-2.354l-14.126-.63c-5.647-.251-10.141 4.677-9.37 10.277l1.732 12.585-12.64-.564c-5.637-.251-10.127 4.659-9.374 10.25l1.686 12.537-15.603-1.009Zm-22.509 260.684c-1.617-.402-2.602-2.039-2.2-3.656l23.285-93.702c.402-1.617 2.038-2.602 3.656-2.201 1.617.402 2.602 2.039 2.2 3.656l-23.285 93.702c-.402 1.617-2.039 2.603-3.656 2.201Zm-8.162-79.754c-.402 1.617.583 3.254 2.2 3.656 1.618.402 3.255-.583 3.656-2.2l5.822-23.426c.401-1.617-.584-3.254-2.201-3.656-1.617-.402-3.254.584-3.656 2.201l-3.839 15.448c-5.638-7.757-13.935-13.647-23.97-16.141-22.64-5.626-45.5553 8.167-51.1815 30.808-5.6262 22.64 8.1665 45.555 30.8075 51.181 10.035 2.494 20.124 1.173 28.737-3.043l-3.839 15.449c-.402 1.617.584 3.254 2.201 3.655 1.617.402 3.254-.583 3.656-2.2l5.821-23.426c.402-1.617-.584-3.254-2.201-3.655-1.617-.402-3.253.583-3.655 2.199l.045-.182c-8.251 5.695-18.815 7.955-29.31 5.347-19.406-4.823-31.2286-24.464-26.4061-43.87C103.478 446.7 123.12 434.877 142.526 439.7c10.495 2.607 18.772 9.549 23.397 18.444l.046-.183ZM110.14 789.74c-1.359-.964-1.68-2.848-.716-4.207l9.043-12.756-11.559-5.139c-5.155-2.292-6.9797-8.691-3.81-13.357l7.11-10.467-11.6227-5.126c-5.1721-2.281-7.0112-8.693-3.8348-13.369l7.9445-11.695c1.19-1.752 2.957-3.031 4.992-3.615l5.458-1.566c-2.417-1.407-4.391-2.661-5.972-3.917-2.994-2.378-4.727-4.865-5.746-8.416-.658-2.294-.322-5.207.803-8.035 1.157-2.91 3.243-5.989 6.465-8.689 6.487-5.437 17.319-9.156 34.045-7.458 12.206 1.239 21.511 6.117 28.346 12.072 1.527-3.751 2.17-8.592 1.11-14.815-.28-1.643.825-3.201 2.468-3.481 1.642-.28 3.201.825 3.481 2.468 1.44 8.457.203 15.162-2.501 20.33 5.702 6.376 9.002 13.21 10.342 17.88.459 1.601-.467 3.272-2.068 3.732-1.602.459-3.273-.467-3.733-2.068-1.068-3.725-3.658-9.172-8.084-14.428l-.026.029c-4.8 5.359-11.148 7.918-15.693 8.671l-47.031 13.492c-.678.194-1.267.621-1.664 1.204l-7.9448 11.696c-1.0589 1.559-.4458 3.696 1.2778 4.456l13.937 6.147 59.855-17.17c1.602-.46 3.273.466 3.733 2.068.459 1.602-.467 3.273-2.069 3.732l-59.855 17.17-8.531 12.558c-1.057 1.556-.448 3.689 1.27 4.453l13.922 6.19 59.85-17.169c1.602-.459 3.273.467 3.732 2.069.46 1.601-.466 3.272-2.068 3.732l-59.888 17.18-10.561 14.897c-.964 1.359-2.847 1.68-4.207.717Zm44.788-93.283-.029.008-.051.015-33.558 9.627c-5.057-2.806-8.219-4.602-10.364-6.306-2.088-1.658-3.053-3.105-3.698-5.355-.174-.606-.204-2.097.609-4.141.78-1.961 2.263-4.223 4.735-6.294 4.9-4.108 13.954-7.663 29.559-6.08 11.241 1.141 19.689 5.782 25.772 11.32-.057.067-.115.134-.173.2-.05.057-.1.114-.15.17-2.913 3.253-6.619 5.196-9.746 6.161l-.042-.146-2.864.821Zm88.207 284.435c-6.844-.395-13.251-3.493-17.811-8.612l-2.795-3.137c-2.208-2.479-3.924-5.357-5.053-8.48l-.306-.843c-2.66-7.351-1.628-15.533 2.774-21.993 5.462-8.017 13.098-14.31 22.01-18.141l13.352-5.739 17.938-9.401c2.236-1.172 4.184-2.827 5.704-4.843l.917-1.218c2.895-3.843 3.654-8.888 2.017-13.412-1.244-3.437-3.763-6.265-7.034-7.896l-.557-.278c-4.158-2.073-9.017-2.211-13.285-.376l-.75.323c-1.531.658-3.306-.05-3.964-1.581-.658-1.531.05-3.305 1.58-3.963l.751-.323c5.899-2.536 12.615-2.346 18.361.52l.557.277c4.658 2.323 8.244 6.349 10.015 11.244 2.331 6.441 1.251 13.625-2.871 19.096l-.918 1.218c-2.057 2.73-4.694 4.97-7.722 6.557l-18.143 9.508-13.565 5.831c-7.858 3.378-14.59 8.926-19.406 15.994-3.311 4.86-4.087 11.013-2.086 16.543l.305.843c.869 2.401 2.187 4.613 3.885 6.519l2.794 3.137c3.496 3.924 8.407 6.299 13.654 6.602 4.28.247 8.525-.901 12.097-3.271l4.856-3.222c4.02-2.668 7.485-6.09 10.202-10.077l8.714-12.789c.466-.685.988-1.33 1.558-1.93.345-5.347 2.711-10.566 7.028-14.411 8.71-7.759 22.061-6.988 29.82 1.722s6.988 22.06-1.722 29.819-22.061 6.988-29.82-1.722c-1.838-2.064-3.198-4.389-4.087-6.838l-6.504 9.547c-3.157 4.632-7.182 8.608-11.852 11.707l-4.856 3.222c-4.661 3.092-10.198 4.59-15.782 4.267Zm70.68-46.49c-5.819-6.533-15.832-7.111-22.364-1.292-6.533 5.82-7.111 15.833-1.292 22.365 5.819 6.532 15.832 7.111 22.365 1.292 6.532-5.82 7.11-15.833 1.291-22.365ZM697.763 82.5626c-1.411-.972-3.344-.6157-4.316.7959-.972 1.4118-.616 3.3441.796 4.3162l4.031 2.7759c2.12 1.46 3.871 3.3936 5.115 5.6477 2.124 3.8508 2.631 8.3877 1.41 12.6127l-.249.862-11.726 40.581c-.476 1.647.473 3.368 2.12 3.843 1.646.476 3.367-.473 3.843-2.119l11.424-39.536 11.881-8.388c1.735-1.225 3.649-2.175 5.675-2.817 3.886-1.2303 8.049-1.2832 11.966-.152l2.878.832c2.632.761 5.051 2.124 7.065 3.981l1.278 1.179c2.622 2.418 4.176 5.778 4.32 9.342.059 1.444-.116 2.888-.517 4.277l-10.426 36.081a27.2108 27.2108 0 0 0-.888 4.406l-1.032 8.85c-.197 1.69-.229 3.386-.101 5.065l-20.97 16.299c-1.386 1.077-3.01 1.805-4.736 2.124-1.673.308-3.394.223-5.028-.249l-11.305-3.267c-1.646-.476-3.367.473-3.843 2.12-.476 1.647.474 3.367 2.12 3.843l11.305 3.267c2.56.739 5.256.873 7.876.39 2.704-.499 5.249-1.64 7.42-3.327l18.586-14.446c.48 1.358 1.072 2.68 1.774 3.953l.954 1.729c2.763 5.009 7.403 8.715 12.898 10.303l1.838.531c6.138 1.774 12.757.197 17.436-4.154 4.92-4.574 6.917-11.488 5.196-17.981-1.637-6.176-6.395-11.04-12.533-12.814l-.164-.047c-4.711-1.362-9.77-.796-14.065 1.573l-3.969 2.19c-1.246.687-2.436 1.47-3.559 2.344l-.898.697.966-8.274c.134-1.151.363-2.289.685-3.402l10.426-36.081c.586-2.03.842-4.14.756-6.251-.211-5.209-2.482-10.12-6.314-13.654l-1.278-1.179c-2.723-2.5105-5.992-4.3527-9.55-5.3807l-2.878-.8318c-5.094-1.4718-10.509-1.4031-15.563.1977-2.634.8341-5.124 2.0698-7.381 3.6635l-6.857 4.8413c-.062-3.686-1.018-7.3374-2.832-10.6247-1.708-3.0979-4.115-5.7553-7.029-7.7618l-4.031-2.7759Zm53.181 100.1444c-.88-1.594-1.533-3.29-1.952-5.041l4.358-3.387c.867-.674 1.786-1.279 2.748-1.81l3.969-2.189c2.853-1.574 6.214-1.95 9.344-1.046l.164.048c4.044 1.168 7.178 4.373 8.256 8.441 1.134 4.278-.182 8.832-3.423 11.846-3.082 2.866-7.442 3.905-11.486 2.736l-1.838-.531c-3.914-1.131-7.218-3.77-9.186-7.338l-.954-1.729Z" clip-rule="evenodd"/></svg>