<svg xmlns="http://www.w3.org/2000/svg" fill="none" viewBox="0 0 479 137"><path fill="#E9A87C" d="m12.9617 63.55 1.2 1.35C7.26172 74.8 4.11172 84.25 4.11172 92.5c0 17.85 14.69998 31.05 38.99998 31.05 23.7 0 35.85-12.6 35.85-24.75 0-9.15-8.1-15.75-18.6-21.6l-2.55 10.8h-1.8l2.7-11.7c-6-3.45-12.45-6.15-18.9-9.6-16.2-8.7-29.55-18.45-29.55-33.9 0-12.6 9-25.65 30.75-25.65 12.9 0 22.8 4.95 30 12.45l2.55-11.1h2.4l-12.9 56.25c10.95 7.05 18.15 14.7 18.15 29.25 0 21-13.05 42.6-39.15 42.6-23.25 0-41.84998-17.1-41.84998-39.75 0-10.2 3.9-21.6 12.74998-33.3Zm48.45 0 8.4-38.4c-2.25-3.75-9.6-16.20001-28.8-16.20001-15.45 0-20.1 10.35001-20.1 19.05001 0 12.75 10.35 18.6 23.7 26.1 5.4 3.3 11.25 5.85 16.8 9.45Zm36.1258 34.2v-50.1h-14.85v-1.8h2.4c15.1505 0 20.5505-17.7 20.7005-32.85h1.95v32.85h3.9c10.2 0 18-.45 22.5-1.35l-1.35 3.15h-25.05c.15 15.15 7.8 24.3 14.7 32.55 5.85 7.2 11.25 13.65 11.25 22.35 0 7.8-5.25 17.1-18 17.1-11.85 0-18.1505-8.1-18.1505-21.9Zm10.2005-38.1v40.2c0 12.6 6.15 16.2 11.7 16.2 5.85 0 12.45-4.05 12.45-13.5 0-8.1-5.101-14.25-10.8-21-5.1-6-10.5-12.75-13.35-21.9Zm91.098 11.7h-47.55c-.3 2.7-.45 5.4-.45 8.4 0 30.75 12.45 38.1 22.5 38.1 19.2 0 30.6-19.2 30.6-40.8 0-4.5-.6-9.3-1.8-13.95l1.8-.6c1.2 4.8 1.8 10.05 1.8 14.55 0 22.5-12 42.6-32.4 42.6-15.15 0-34.35-9.3-34.35-37.8 0-21.15 12.3-37.8 32.7-37.8 18.6 0 27 14.1 27.15 27.3Zm-28.35-25.5c-9.3 0-16.65 9.3-18.9 23.7h36c-.15-12.75-5.25-23.7-17.1-23.7ZM209.997 118v-1.8h11.85V5.8c-4.95 1.49999-11.85 1.79999-11.85 1.79999V5.8c9.45-.60001 16.35-3 22.05-5.7v116.1h11.85v1.8h-33.9Zm36.819 0v-1.8h11.85V5.8c-4.95 1.49999-11.85 1.79999-11.85 1.79999V5.8c9.45-.60001 16.35-3 22.05-5.7v116.1h11.85v1.8h-33.9Zm92.618-49.95v9.15c.15 5.1 2.85 10.65 5.55 15.9 2.7 5.7 5.55 11.25 5.55 16.65 0 8.7-5.25 9.9-9.6 9.9-8.1 0-11.55-5.1-11.7-15.3-13.2 13.8-22.2 15.3-28.05 15.3-11.7 0-16.95-6.75-16.95-15.3 0-9.45 6.75-15.75 15.75-20.25-6.3-5.7-9.6-12.6-9.6-19.95 0-10.8 8.4-20.1 23.25-20.1 12.6 0 25.8 5.1 25.8 24Zm-10.2 7.65v-7.65c0-14.4-3.45-22.05-16.5-22.05-12.15 0-20.55 7.95-20.55 18.15 0 7.2 3 13.5 9.45 19.2 7.95-3.6 16.95-5.85 27.6-7.65Zm-10.35 17.7-.6 1.8c-6.15-2.7-10.95-5.25-14.85-8.1-4.65 3.6-7.35 8.55-7.35 15.3 0 9.15 5.25 12.45 11.55 12.45 7.2 0 16.8-7.95 21.6-13.2V77.5c-9.3 1.65-18 4.2-24.3 8.55 3.75 2.55 8.25 4.95 13.95 7.35Zm20.55-6.75v21.15c0 3.75.9 8.25 4.8 8.25 2.25 0 4.5-1.5 4.5-6.3 0-7.35-5.4-15.6-9.3-23.1Zm14.27 31.35v-1.8h11.85V49.6c-5.55 1.35-11.85 1.8-11.85 1.8v-1.8c9.9-.75 16.5-3.3 22.05-5.85V58.3c4.05-8.4 10.8-14.25 18.3-14.25 4.05 0 7.05 1.65 9.3 3.3l-.15-3.3h1.95l.75 40.05h-1.65l-.75-28.05c0-4.2-3.6-10.2-10.2-10.2-10.35 0-17.55 13.65-17.55 26.1v44.25h13.35v1.8h-35.4Zm113.273-49.95v9.15c.15 5.1 2.85 10.65 5.55 15.9 2.7 5.7 5.55 11.25 5.55 16.65 0 8.7-5.25 9.9-9.6 9.9-8.1 0-11.55-5.1-11.7-15.3-13.2 13.8-22.2 15.3-28.05 15.3-11.7 0-16.95-6.75-16.95-15.3 0-9.45 6.75-15.75 15.75-20.25-6.3-5.7-9.6-12.6-9.6-19.95 0-10.8 8.4-20.1 23.25-20.1 12.6 0 25.8 5.1 25.8 24Zm-10.2 7.65v-7.65c0-14.4-3.45-22.05-16.5-22.05-12.15 0-20.55 7.95-20.55 18.15 0 7.2 3 13.5 9.45 19.2 7.95-3.6 16.95-5.85 27.6-7.65Zm-10.35 17.7-.6 1.8c-6.15-2.7-10.95-5.25-14.85-8.1-4.65 3.6-7.35 8.55-7.35 15.3 0 9.15 5.25 12.45 11.55 12.45 7.2 0 16.8-7.95 21.6-13.2V77.5c-9.3 1.65-18 4.2-24.3 8.55 3.75 2.55 8.25 4.95 13.95 7.35Zm20.55-6.75v21.15c0 3.75.9 8.25 4.8 8.25 2.25 0 4.5-1.5 4.5-6.3 0-7.35-5.4-15.6-9.3-23.1Z"/></svg>